<svg id="Layer_1" data-name="Layer 1" xmlns="http://www.w3.org/2000/svg" viewBox="0 0 36 36"><defs><style>.cls-1{fill:#231f20;}.cls-2{fill:#fff;}</style></defs><polygon class="cls-1" points="30.93 31.2 5.28 31.2 5.28 5.55 30.93 5.55 30.93 12.89 30.28 12.89 30.28 6.2 5.92 6.2 5.92 30.55 30.28 30.55 30.28 20.72 30.93 20.72 30.93 31.2"/><rect class="cls-1" x="11.14" y="24.4" width="3.32" height="0.65"/><polyline class="cls-2" points="30.87 21.03 19.37 18.41 19.37 18.38 30.62 15.78 30.6 5.87 12.16 5.87"/><polygon class="cls-1" points="30.8 21.35 19.04 18.67 19.04 18.16 19.29 18.07 30.3 15.53 30.28 6.2 12.16 6.2 12.16 5.55 30.93 5.55 30.95 16.04 20.75 18.39 30.94 20.72 30.8 21.35"/><polygon class="cls-1" points="17.19 25.49 17.18 24.85 21.15 24.8 16.54 22.8 16.8 22.21 24.19 25.41 17.19 25.49"/><rect class="cls-1" x="11.12" y="13.57" width="0.65" height="11.48"/><rect class="cls-2" x="22.07" y="23.18" width="2.4" height="3.04"/><polygon class="cls-1" points="14.96 15.26 14.71 14.66 21 11.98 14.17 11.97 14.18 11.33 24.16 11.34 14.96 15.26"/><rect class="cls-2" x="22.07" y="9.74" width="2.4" height="3.04"/><rect class="cls-2" x="-2.42" y="16.14" width="34.79" height="4.59" transform="translate(29.12 -0.65) rotate(75.64)"/></svg>