<svg id="Layer_1" data-name="Layer 1" xmlns="http://www.w3.org/2000/svg" width="11in" height="8.5in" viewBox="0 0 792 612"><title>Artboard 1</title><path d="M220.9,263c-9.1,16.5-8.1,24.1-17.3,31.3-12.1,9.3-75,21.9-104.4-38h.1c26.7,5.3,73.1,6.3,102.7-11.6,37.6-21.2,51.7-60.7,31.7-90.3-22.2-32.7-81.5-34.1-112.2-16.1-10.2,6-24.7,17.5-30.9,26.6-21-4.9-40.1,3.2-48.9,21.3-10.6,21.7-4.1,40.2,21,57.3,2.4,1.7,11.9,7,12.8,7.4,16.9,83.4,111.6,74.2,128.1,57.7,0,0-10.5,51.5-27.9,91.8-2.3-19.7-16.2-37.4-36.9-44.3-28.1-9.2-58,5.1-66.8,31.9s6.7,56.1,34.8,65.4a55.9,55.9,0,0,0,27.7,1.8h0c60.2-10.6,71-63,84.7-123.9s27.7-71.7,27.7-71.7S229.4,247.4,220.9,263ZM74.4,244.3c-22.1-17.5-27.9-42-17.9-56.9C63.9,176.2,70.9,171,86.9,171,73.8,194.1,71,222.4,74.4,244.3Zm126-8.5c-26.9,21.9-78.5,21.3-104.2,15.8-7.2-19.1-6.7-50.9,4.9-76.8,8.1,3.2,72.1,65.9-15.6,132.5,102-69.5,24.7-134.5,18.5-137.6h-.3a64.9,64.9,0,0,1,26.6-25.5c30.1-15.3,70-4.5,83.5,17.1C224.6,178.3,229.6,211.9,200.4,235.8ZM131.8,441.3c-19.5,0-35.2-19.2-35.2-42.9A49.8,49.8,0,0,1,100,380a45.1,45.1,0,0,0-4.2,10.6,51.9,51.9,0,0,0-1.5,12c0,23.7,16.8,43,37.5,43a34.2,34.2,0,0,0,21.5-7.8,38.4,38.4,0,0,1-3,2.8h0a35.9,35.9,0,0,1-21.3,7.1c-21.8,0-39.5-20.2-39.5-45s17.7-44.9,39.5-44.9c16,0,29.7,10.7,35.9,26.1h0a48.9,48.9,0,0,1,2.1,14.5C167,422.1,151.2,441.3,131.8,441.3Z" fill="#112765"/><path d="M266.6,223.2a31.8,31.8,0,0,1,12.8-12.4,39.1,39.1,0,0,1,18.2-4.3,73.4,73.4,0,0,1,11.8.9c3.6.6,7,1.3,10.1,2.1l-.9,15.4h-7l-2.5-10.2a9.2,9.2,0,0,0-4.1-1.9,28.2,28.2,0,0,0-8.1-.9,21.9,21.9,0,0,0-11.8,3.2,20.5,20.5,0,0,0-7.9,9.4,37.1,37.1,0,0,0-2.9,15.4,47.2,47.2,0,0,0,2.4,15.3,25.7,25.7,0,0,0,7.4,11.3,17.7,17.7,0,0,0,12.2,4.3,27.6,27.6,0,0,0,7.7-1,11.9,11.9,0,0,0,5.6-2.9v-20l-11.2-1.1v-5.9h27.3v5.9l-5.4,1v24.7a9.3,9.3,0,0,0-2.7.4l-3.8,1.1c-3.3,1-6.3,1.8-9.1,2.4a52.8,52.8,0,0,1-9.3.8c-6.9,0-12.9-1.4-17.9-4.4A28.6,28.6,0,0,1,266,259.7a36.6,36.6,0,0,1-4-17.4C262,234.9,263.5,228.6,266.6,223.2Z" fill="#112765"/><path d="M332.3,270.2v-57L325,212v-5.4h27c6.2,0,11.1.7,14.8,2a15,15,0,0,1,8.1,5.9c1.7,2.6,2.5,6,2.5,10.1a20.5,20.5,0,0,1-1.6,8.1,21.7,21.7,0,0,1-4.7,6.9,17,17,0,0,1-7.4,4.2,12,12,0,0,1,3.4,3.1,32,32,0,0,1,3.4,5.3c1,2.3,2.8,7.6,3.8,11,3.7,12.1,4.6,15.6,10.5,20,1.7,1.2,7.2,1.5,8.2,1.8l6.5,1.1V291H378.2a9.2,9.2,0,0,1-5.4-3.2c-1.8-2.5-5.6-13.1-9.9-23.6-2-5-4-10.9-5.6-13.7s-1.7-3.9-3.3-4.9H343v24.6l9,1v5H324.6v-5Zm30.2-33.7c2.1-2.5,3.2-6.3,3.2-11.4s-1.1-7.7-3.3-10.1-6.1-3.6-11.6-3.6a32.4,32.4,0,0,0-6.4.6l-1.4.2v28h10.3C357.2,240.3,360.3,239.1,362.5,236.5Z" fill="#112765"/><path d="M395.1,270.1l22.6-63.5h10.9l22.7,63.5,5.8,1.1v5H432v-5l7.5-1.1-4.4-13.3H408.2l-4.1,13.3,7.8,1.1v5H389.4v-5Zm38.1-19.2-9.7-29.5-2.1-7.6-2,7.7-9.3,29.4Z" fill="#112765"/><path d="M470.4,270.2V212.9l-7.5-1.2v-5.1h18l30.8,44.9,4.9,9.1V212.8l-8.2-1.1v-5.1h22.7v5.1l-7.6,1.2v63.3H516l-31.5-45.9-7.2-12.4v52.2l8.8,1.1v5H462.9v-5Z" fill="#112765"/><path d="M536,270.1l22.5-63.5h10.9l22.7,63.5,5.8,1.1v5H572.8v-5l7.5-1.1-4.4-13.3H549l-4.1,13.3,7.8,1.1v5H530.2v-5Zm38.1-19.2-9.8-29.5-2-7.6-2.1,7.7-9.3,29.4Z" fill="#112765"/><path d="M621.7,270.1V212.3H606.4L603,231.6h-6.6l1.6-25h57.9l1.4,25h-6.5l-3.5-19.3H632.7v57.8l12.9,1.1v5H609.7v-5Z" fill="#112765"/><path d="M656.3,270.1l22.5-63.5h10.9l22.7,63.5,5.8,1.1v5H693.1v-5l7.5-1.1-4.4-13.3H669.4l-4.2,13.3,7.8,1.1v5H650.5v-5Zm38.1-19.2-9.8-29.5-2-7.6-2,7.7-9.4,29.4Z" fill="#112765"/><path d="M266.2,368.6l6.8-57.3-9.7-1.1v-5.1h24.9L302.6,347l2.4,10.5,2-10.5,12.7-41.9h24.9v5.1l-10.1,1.1,8.9,57.3,8.1,1.1v5H324.4v-5l8.1-1.1-5.8-41.5-2-18.2-3.1,12.5-15,50.2h-5.9l-16.5-45.1-5-17.6-1.5,18.2L274,368.6l9,1.1v5H258v-5Z" fill="#ca9a2c"/><path d="M357.2,311.6l-6.5-1.2v-5.3h25.5v5.3l-7.8,1.2V346c0,8.3,1.5,14.2,4.5,17.9s7.2,5.4,12.7,5.4,9.4-2,12.2-5.9,4.2-9.6,4.2-16.9V311.6l-7.6-1.2v-5.3h21.9v5.3l-6.7,1.2v34.5c0,6.4-1.1,11.7-3.3,16a21.1,21.1,0,0,1-8.9,9.5,26.4,26.4,0,0,1-13.1,3.1c-6.3,0-11.5-1-15.4-3.1a19,19,0,0,1-8.8-9.7c-1.9-4.3-2.9-10-2.9-16.9Z" fill="#ca9a2c"/><path d="M417.4,354h6.3l1.8,11.4a14.9,14.9,0,0,0,5.1,2.7,22.7,22.7,0,0,0,7.5,1.1c4.6,0,8-1,10.3-2.9a10.2,10.2,0,0,0,3.4-8.2,9.1,9.1,0,0,0-1.9-5.9,15.9,15.9,0,0,0-5.1-4.4,95.6,95.6,0,0,0-8.9-4.3,67,67,0,0,1-8.9-4.8,25.1,25.1,0,0,1-6.8-6.6,16.6,16.6,0,0,1-2.8-9.5,15.3,15.3,0,0,1,2.8-9.1,18.8,18.8,0,0,1,8-6.2,29.5,29.5,0,0,1,12-2.3,47.1,47.1,0,0,1,7.8.7l7.4,1.8,3.2.9-.6,15.3h-6.1l-2.1-10.8c-.6-.7-1.8-1.2-3.7-1.7a19,19,0,0,0-6-.8c-8.2,0-12.4,3.2-12.4,9.7a9.6,9.6,0,0,0,1.9,5.8,17.4,17.4,0,0,0,5,4.2c2.1,1.3,5.1,2.8,9.2,4.8a105.2,105.2,0,0,1,9.9,5.3,25.4,25.4,0,0,1,6.6,6.1,14.6,14.6,0,0,1,2.7,8.8,17.2,17.2,0,0,1-2.8,9.4,20.7,20.7,0,0,1-8.5,7.4c-3.7,1.9-8.3,2.8-13.7,2.8a41.6,41.6,0,0,1-9-.9,75.9,75.9,0,0,1-8.4-2.3,23.8,23.8,0,0,0-4-1Z" fill="#ca9a2c"/><path d="M473.7,368.6V311.3l-8.3-1.1v-5.1h27.5v5.1l-8.4,1.1v57.3l8.5,1.2v4.9H465.4v-5Z" fill="#ca9a2c"/><path d="M498.1,321.3a30.9,30.9,0,0,1,12.2-12.1,35.7,35.7,0,0,1,17.3-4.2,47.2,47.2,0,0,1,8.5.7l9.2,1.7,2.5.5-.9,16.7h-6.8l-2.5-11.4a7.1,7.1,0,0,0-3.9-1.9,31.9,31.9,0,0,0-7.7-.8,17.2,17.2,0,0,0-10.4,3.3,20.6,20.6,0,0,0-7,9.5,41.6,41.6,0,0,0-2.5,15.3,49,49,0,0,0,2.2,15.2,25,25,0,0,0,7,11.2,16.8,16.8,0,0,0,11.8,4.3c4.9,0,8.5-1.1,10.6-3.3l4-9.3,6.5.8-2,13.7a8.6,8.6,0,0,0-2.4.4l-3,.9a37.3,37.3,0,0,1-5.9,1.6,35.1,35.1,0,0,1-7,.6q-10.9,0-18.6-4.2a27.2,27.2,0,0,1-11.7-12c-2.6-5.2-3.9-11.5-3.9-18.8A37.4,37.4,0,0,1,498.1,321.3Z" fill="#ca9a2c"/><path d="M577.2,368.6V311.3l-7.5-1.1v-5.1h27.2v5.1l-8.8,1.1v56.9h23.1l5.5-15.7,6.2,1-3.1,21.2H569.5v-5Z" fill="#ca9a2c"/><path d="M643.9,368.6V310.7H628.7l-3.4,19.4h-6.7l1.6-25h57.9l1.5,25H673l-3.4-19.4H654.9v57.9l13,1.1v5H632v-5Z" fill="#ca9a2c"/><path d="M690.6,368.3V311.9l-7.3-1.2v-5.6H712c11.7,0,20.4,2.8,26.1,8.5s8.5,13.8,8.5,24.1a41.3,41.3,0,0,1-4.4,19.3A31.3,31.3,0,0,1,730,370a34.5,34.5,0,0,1-18,4.7H682.8v-5.4Zm14.7,1a33.9,33.9,0,0,0,4.7.2h2.1a21,21,0,0,0,11.9-3.4,22.2,22.2,0,0,0,8-10.1c2-4.4,2.9-9.9,2.9-16.3,0-9.7-2.1-17.1-6.3-22.1s-10.5-7.4-19-7.4a48.2,48.2,0,0,0-6.9.6l-1.4.2v57.7A24,24,0,0,0,705.3,369.3Z" fill="#ca9a2c"/><path d="M751.3,364.8a7.7,7.7,0,0,1,2.8-2.6,8.2,8.2,0,0,1,3.7-1,6.2,6.2,0,0,1,4.8,1.8,6.4,6.4,0,0,1,1.7,4.4,7.1,7.1,0,0,1-1.1,3.9,6.2,6.2,0,0,1-2.8,2.5,7.9,7.9,0,0,1-3.8.9,5.5,5.5,0,0,1-3.1-.8,5.6,5.6,0,0,1-2.4-2.2,5.7,5.7,0,0,1-.9-3.2A7,7,0,0,1,751.3,364.8Z" fill="#ca9a2c"/></svg>