<svg id="Layer_1" data-name="Layer 1" xmlns="http://www.w3.org/2000/svg" width="1.6in" height="1.6in" viewBox="0 0 112 112"><title>icons</title><circle cx="56" cy="56" r="52.6" fill="#fff" stroke="#231f20" stroke-miterlimit="10" stroke-width="3"/><path d="M24.9,36.1,55.3,58.7a1,1,0,0,0,1.2,0L87.1,36a.7.7,0,0,0-.4-1.3H25.4A.7.7,0,0,0,24.9,36.1Z" fill="#231f20"/><path d="M21.1,41.3V80.1H89.8v-38a.9.9,0,0,0-1.4-.7L56.6,65.5a1.1,1.1,0,0,1-1.3,0L22.4,40.6A.8.8,0,0,0,21.1,41.3Z" fill="#231f20"/></svg>