<svg id="Layer_1" data-name="Layer 1" xmlns="http://www.w3.org/2000/svg" width="1in" height="1in" viewBox="0 0 68.9 69.5"><title>icons_behance</title><circle cx="34.4" cy="34.8" r="32.5" fill="#fff" stroke="#231f20" stroke-miterlimit="10" stroke-width="3"/><g id="M3yloC"><path d="M14.7,22.6V46.4c4.5,0,9,.1,13.4,0a8.6,8.6,0,0,0,4.8-1.6c3.3-2.3,3.7-8.6-.6-10.8l-1.1-.5.8-.6a5.8,5.8,0,0,0,1.7-7.2,6,6,0,0,0-5.4-3.1C23.8,22.5,19.3,22.6,14.7,22.6ZM54.1,38.9c0-.2.1-.2.1-.3v-1a9.1,9.1,0,0,0-4.9-7.9,8.5,8.5,0,0,0-9.3.7c-3.1,2.2-4.1,5.3-3.7,9a7.9,7.9,0,0,0,4.8,6.7,10.7,10.7,0,0,0,8.6,0,6.8,6.8,0,0,0,4.1-5H50.5c-.7,0-1.3.1-1.6.8a2.6,2.6,0,0,1-.9.9,4.7,4.7,0,0,1-4.7.1c-1.5-.8-2-2.2-2.1-3.9ZM50.3,24.1H39.7a8.1,8.1,0,0,1-.1,1.6c0,.6.2.8.9.8h9.8Z" fill="#fff"/><path d="M14.7,22.6c4.6,0,9.1-.1,13.6,0a6,6,0,0,1,5.4,3.1A5.8,5.8,0,0,1,32,32.9l-.8.6,1.1.5c4.3,2.2,3.9,8.5.6,10.8a8.6,8.6,0,0,1-4.8,1.6c-4.4.1-8.9,0-13.4,0Zm5.5,19.7c2.3,0,4.6.1,6.8,0a3.3,3.3,0,0,0,3-3.2,3.3,3.3,0,0,0-3-3.2,43.4,43.4,0,0,0-5.1-.1H20.2Zm0-10.1h6.1a2.7,2.7,0,0,0,2.4-1.8,2.8,2.8,0,0,0-2.8-3.8c-1.3-.1-2.5,0-3.8,0H20.2Z"/><path d="M54.1,38.9H41.2c.1,1.7.6,3.1,2.1,3.9a4.7,4.7,0,0,0,4.7-.1,2.6,2.6,0,0,0,.9-.9c.3-.7.9-.8,1.6-.8h3.3a6.8,6.8,0,0,1-4.1,5,10.7,10.7,0,0,1-8.6,0,7.9,7.9,0,0,1-4.8-6.7c-.4-3.7.6-6.8,3.7-9a8.5,8.5,0,0,1,9.3-.7,9.1,9.1,0,0,1,4.9,7.9v1C54.2,38.7,54.1,38.7,54.1,38.9Zm-13-3h8a3.9,3.9,0,0,0-3.8-3.7A4,4,0,0,0,41.1,35.9Z"/><path d="M50.3,24.1v2.3H40.5c-.7,0-.9-.2-.9-.8a8.1,8.1,0,0,0,.1-1.6Z"/><path d="M20.2,42.3V35.8h1.7a43.4,43.4,0,0,1,5.1.1,3.3,3.3,0,0,1,3,3.2,3.3,3.3,0,0,1-3,3.2C24.8,42.4,22.5,42.3,20.2,42.3Z" fill="#fff"/><path d="M20.2,32.2V26.6h1.9c1.3,0,2.5-.1,3.8,0a2.8,2.8,0,0,1,2.8,3.8,2.7,2.7,0,0,1-2.4,1.8Z" fill="#fff"/><path d="M41.1,35.9a4,4,0,0,1,4.2-3.7,3.9,3.9,0,0,1,3.8,3.7Z" fill="#fff"/></g></svg>