<svg id="Layer_1" data-name="Layer 1" xmlns="http://www.w3.org/2000/svg" width="1.6in" height="1.6in" viewBox="0 0 113 113"><title>icons</title><circle cx="56.5" cy="56.5" r="52.6" fill="#fff" stroke="#231f20" stroke-miterlimit="10" stroke-width="3"/><g id="M3yloC"><path d="M16.3,31.7V80.3c9.2,0,18.3.1,27.4-.1a17.7,17.7,0,0,0,9.6-3.3C60.1,72.3,61,59.5,52.2,55l-2.3-1.1,1.6-1.1c4.5-3.5,6.1-9.8,3.6-14.7S48.6,31.9,44,31.8C34.8,31.5,25.7,31.7,16.3,31.7ZM96.5,65a6.9,6.9,0,0,0,.1-.7c0-.7.1-1.4,0-2-.3-7.2-3.5-12.7-9.9-16s-13-2.9-19,1.3-8.4,10.9-7.4,18.3S64.2,77,70.1,79.6a21.9,21.9,0,0,0,17.4,0c4.5-1.8,7.1-5.4,8.3-10.3H89.2c-1.4-.1-2.6.1-3.3,1.6A4.5,4.5,0,0,1,84,72.7a9.6,9.6,0,0,1-9.5.2c-3.1-1.6-4-4.5-4.3-7.9ZM88.8,34.9H67.1c0,1.1.1,2.1,0,3.2s.3,1.7,1.6,1.7H88.8Z" fill="#fff"/><path d="M16.3,31.7c9.3,0,18.5-.2,27.7.1,4.6.1,8.8,1.9,11.1,6.4s.9,11.2-3.6,14.7l-1.6,1.1L52.2,55c8.8,4.5,7.9,17.3,1.1,21.9a17.7,17.7,0,0,1-9.6,3.3c-9.1.2-18.2.1-27.4.1ZM27.5,71.9c4.7,0,9.3.2,13.9-.1a6.6,6.6,0,0,0,0-13.1c-3.5-.3-6.9-.2-10.4-.2H27.5Zm0-20.6c4.3,0,8.3.1,12.4,0a5.5,5.5,0,0,0,5-3.6c1.6-3.8-1.3-7.6-5.8-7.8H27.5Z"/><path d="M96.5,65H70.2c.3,3.4,1.2,6.3,4.3,7.9a9.6,9.6,0,0,0,9.5-.2,4.5,4.5,0,0,0,1.9-1.8c.7-1.5,1.8-1.7,3.3-1.6h6.7c-1.3,4.9-3.9,8.4-8.3,10.3a21.9,21.9,0,0,1-17.4,0c-5.9-2.5-8.9-7.5-9.7-13.7S61.5,52,67.8,47.6s12.5-4.6,19-1.3,9.6,8.8,9.9,16c0,.7,0,1.4,0,2A6.9,6.9,0,0,1,96.5,65ZM70.2,58.9H86.3c.2-3.8-3.6-7.5-7.7-7.7A8.2,8.2,0,0,0,70.2,58.9Z"/><path d="M88.8,34.9v4.7H68.7c-1.3,0-1.8-.4-1.6-1.7s0-2.1,0-3.2Z"/><path d="M27.5,71.9V58.5h3.6c3.5,0,7-.1,10.4.2a6.6,6.6,0,0,1,0,13.1C36.8,72,32.2,71.9,27.5,71.9Z" fill="#fff"/><path d="M27.5,51.3V39.8H39.1c4.5.1,7.4,4,5.8,7.8a5.5,5.5,0,0,1-5,3.6C35.8,51.4,31.7,51.3,27.5,51.3Z" fill="#fff"/><path d="M70.2,58.9a8.2,8.2,0,0,1,8.5-7.7c4.1.1,7.9,3.9,7.7,7.7Z" fill="#fff"/></g></svg>