<svg id="Layer_1" data-name="Layer 1" xmlns="http://www.w3.org/2000/svg" width="1in" height="0.4in" viewBox="0 0 72.5 26"><title>logo</title><path d="M11.5,20.4l.6-.4a.2.2,0,0,1,.2.2c0,.2,0,.3-.4.5C9.3,23,4.9,26,2.4,26A2.4,2.4,0,0,1,0,23.4C0,17.8,12.7,0,17.9,0a1.2,1.2,0,0,1,1.3,1.3c0,5.7-13,16.4-15.5,18.2a8.1,8.1,0,0,0-1.3,4.4c0,.9.4,1.2,1,1.2S8.1,23.1,11.5,20.4ZM4,18.4C8.5,14.9,18.2,5.8,18.2,1.6c0-.6-.2-.7-.6-.7C15.6,1,5.6,14.7,4,18.4Z" fill="#231f20"/><path d="M23.6,14.6a1.4,1.4,0,0,1,1.4,1.3c0,.9-3.8,4.9-3.8,5.4a.1.1,0,0,0,.2.2c.9,0,4.9-3.7,6.3-3.7s1.2.4,1.2.9-.7,2.3-.7,3.3a1.7,1.7,0,0,0,1.9,1.8c1.5,0,2.9-.7,6.2-3.3l.6-.4a.2.2,0,0,1,.2.2c0,.2-.1.3-.4.5-3.7,3-5.5,3.8-7.7,3.8a2.5,2.5,0,0,1-2.7-2.6,20,20,0,0,1,.3-2.2c0-.2-.1-.4-.3-.4s-5.9,4.2-6.9,4.2-1.1-.5-1.1-.8c0-2.3,5-6.4,5-7.2s-.1-.3-.3-.3-6.8,4.3-9.9,7.1c-1.6,1.5-1.9,2.4-3,2.4a.6.6,0,0,1-.6-.6,35.1,35.1,0,0,1,5.3-8.9,3.4,3.4,0,0,1,2.5-1.3c.3,0,.6.1.6.3s-1,1.1-1.9,2.2a20.3,20.3,0,0,0-3.1,5C13.1,21.6,20.1,14.6,23.6,14.6Z" fill="#231f20"/><path d="M46.7,20.6a7,7,0,0,1-.2,1.8,3.8,3.8,0,0,1-.6,1.3,2.7,2.7,0,0,1-1,.8l-1.3.3H41.8V16.3h1.8l1.3.3a2.6,2.6,0,0,1,1,.8,4,4,0,0,1,.6,1.3A7.1,7.1,0,0,1,46.7,20.6Zm-.8,0a6.3,6.3,0,0,0-.2-1.6,3.4,3.4,0,0,0-.5-1.1,2,2,0,0,0-.7-.6l-.9-.2h-1v7.1h1l.9-.2a2,2,0,0,0,.7-.7,3.4,3.4,0,0,0,.5-1.1A6.1,6.1,0,0,0,45.9,20.6Z" fill="#231f20"/><path d="M48.3,24.8V16.3h3.4V17H49.1v3h2.4v.7H49.1V24h2.7v.8Z" fill="#231f20"/><path d="M57,22.6a2.8,2.8,0,0,1-.2,1,2.2,2.2,0,0,1-.5.7l-.7.5-.8.2-1.2-.3a2.4,2.4,0,0,1-.9-.7l.5-.6a1.9,1.9,0,0,0,.7.6l.9.2a1.3,1.3,0,0,0,1-.4,1.6,1.6,0,0,0,.4-1.2A1.6,1.6,0,0,0,56,22l-.3-.5-.5-.4-.5-.3-.7-.4-.5-.5-.4-.7a2.5,2.5,0,0,1-.1-.9,2.7,2.7,0,0,1,.2-1,2.1,2.1,0,0,1,.5-.7l.7-.4h.8l1,.2a1.9,1.9,0,0,1,.8.6l-.5.6-.6-.5H54.7l-.4.3-.3.5a1.9,1.9,0,0,0-.1.7,1.6,1.6,0,0,0,.1.6l.3.5.4.4.5.3.7.4.6.5.4.7A2.4,2.4,0,0,1,57,22.6Z" fill="#231f20"/><path d="M58.5,24.8V16.3h.8v8.5Z" fill="#231f20"/><path d="M65.1,24.8l-1.2.2a2.6,2.6,0,0,1-1.3-.3,2.7,2.7,0,0,1-.9-.9,4.4,4.4,0,0,1-.6-1.4,8.1,8.1,0,0,1,0-3.6,4.7,4.7,0,0,1,.6-1.4,2.9,2.9,0,0,1,.9-.9,2.3,2.3,0,0,1,1.2-.3l1.1.3a2.1,2.1,0,0,1,.9.8l-.5.6-.6-.6-.8-.2a1.5,1.5,0,0,0-.9.3,2.3,2.3,0,0,0-.6.8,4.3,4.3,0,0,0-.4,1.2,7.6,7.6,0,0,0-.1,1.4,7.5,7.5,0,0,0,.1,1.5,3.9,3.9,0,0,0,.4,1.2,2.2,2.2,0,0,0,.7.8,1.6,1.6,0,0,0,.9.3h.7l.5-.3V20.9H63.9v-.7h2v4Z" fill="#231f20"/><path d="M71.5,24.8l-3-7.1h0v7.1h-.8V16.3h1l2.9,7.1h0V16.3h.8v8.5Z" fill="#231f20"/></svg>