<svg id="Layer_1" data-name="Layer 1" xmlns="http://www.w3.org/2000/svg" width="0.3in" height="0.3in" viewBox="0 0 18.9 18.9"><title>logo</title><path d="M6.5,5H7.9l3.4,6.1A23.9,23.9,0,0,0,12.6,9l1.1-1.9.8-1.5.3-.6H18l-1,.2-.4.4a3.5,3.5,0,0,0-.1.6v.8a3.8,3.8,0,0,0-.1,1v2.3a4.9,4.9,0,0,0,.1,1.2v.8h.1l.3.2.4.2H18v.2H13v-.2l1.1-.2a.9.9,0,0,0,.6-.4c0-.1.1-.2.1-.4v-.4a7.1,7.1,0,0,0,.1-1.4V5.5L14,7.1l-.8,1.3-.8,1.4a9.9,9.9,0,0,0-.9,1.5l-.2.3-.2.5-.3.5a.4.4,0,0,0-.1.3h-.1l-.9-1.7a6.5,6.5,0,0,1-.9-1.6L7.9,8.2,7.3,7l-.5-.8a.9.9,0,0,1-.3-.5Z" fill="#231f20"/><path d="M3.2,4.8a1.3,1.3,0,0,0-.1-.6.5.5,0,0,0-.2-.4,1.6,1.6,0,0,0-.8-.6L1,2.9V2.7H8v.2l-.7.2-.7.2L6,3.9a1.5,1.5,0,0,0-.3,1v.3a4.9,4.9,0,0,0-.1,1.2v5.2A6.1,6.1,0,0,1,5.7,13v1.3a3,3,0,0,0,.2,1l.4.2a8.8,8.8,0,0,0,1.5.2l.8-.2a5.2,5.2,0,0,0,1.5-.6l1-.9.7-1.1a6.9,6.9,0,0,0,.5-1.3h.3l-.9,4.5H.8V16l1.1-.3a2,2,0,0,0,.9-.6c.1-.1.1-.2.2-.4a4.3,4.3,0,0,0,.1-.5,1.5,1.5,0,0,1,.1-.7V8.2" fill="#231f20"/></svg>