<svg xmlns="http://www.w3.org/2000/svg" width="146" height="114" viewBox="0 0 146 114"><defs><style>.a{fill:none;}.a,.b{stroke:#423f3d;stroke-miterlimit:10;stroke-width:8px;}.b,.c{fill:#fff;}</style></defs><polyline class="a" points="117.605 65.929 117.605 109.109 17.676 109.109 17.676 5.18 116.605 5.18 116.605 34.361"/><line class="a" x1="39.0584" y1="83.536" x2="55.4808" y2="83.5454"/><polyline class="b" points="120.607 69.687 77.901 57.303 77.901 57.182 117.682 46.376 117.605 5.18 47.963 5.18"/><polyline class="a" points="69.232 85.162 94.638 85.124 64.545 71.5"/><line class="a" x1="42.9651" y1="84.8874" x2="42.9651" y2="25.633"/><rect class="c" x="90.1337" y="77.1114" width="22.4235" height="12.6478"/><polyline class="a" points="49.936 29.201 95.253 29.243 57.344 45.456"/><rect class="c" x="90.1337" y="18.5366" width="23.4769" height="18.1266"/><rect class="c" x="-16.4348" y="49.8703" width="144.5987" height="17.2282" transform="translate(98.6607 -10.1433) rotate(75.6352)"/></svg>