<svg id="Layer_1" data-name="Layer 1" xmlns="http://www.w3.org/2000/svg" width="1.5in" height="1.6in" viewBox="0 0 110.9 112"><title>icons</title><circle cx="55.5" cy="56" r="52.6" fill="#fff" stroke="#231f20" stroke-miterlimit="10" stroke-width="3"/><g id="M3yloC"><path d="M15.3,31.2V79.8c9.2,0,18.3.1,27.4-.1a17.7,17.7,0,0,0,9.6-3.3C59,71.8,60,59,51.2,54.5l-2.3-1.1,1.6-1.1c4.5-3.5,6.1-9.8,3.6-14.7S47.6,31.4,43,31.3C33.8,31,24.6,31.2,15.3,31.2ZM95.5,64.5a6.9,6.9,0,0,0,.1-.7c0-.7.1-1.4,0-2-.3-7.2-3.5-12.7-9.9-16s-13-2.9-19,1.3S58.4,58,59.3,65.4,63.1,76.5,69,79.1a21.9,21.9,0,0,0,17.4,0c4.5-1.8,7.1-5.4,8.3-10.3H88.1c-1.4-.1-2.6.1-3.3,1.6A4.5,4.5,0,0,1,83,72.2a9.6,9.6,0,0,1-9.5.2c-3.1-1.6-4-4.5-4.3-7.9ZM87.8,34.4H66.1c0,1.1.1,2.1,0,3.2s.3,1.7,1.6,1.7H87.8Z" fill="#fff"/><path d="M15.3,31.2c9.3,0,18.5-.2,27.7.1,4.6.1,8.8,1.9,11.1,6.4s.9,11.2-3.6,14.7l-1.6,1.1,2.3,1.1C60,59,59,71.8,52.3,76.4a17.7,17.7,0,0,1-9.6,3.3c-9.1.2-18.2.1-27.4.1ZM26.4,71.4c4.7,0,9.3.2,13.9-.1a6.6,6.6,0,0,0,0-13.1C37,58,33.5,58.1,30,58H26.4Zm0-20.6c4.3,0,8.3.1,12.4,0a5.5,5.5,0,0,0,5-3.6c1.6-3.8-1.3-7.6-5.8-7.8H26.4Z"/><path d="M95.5,64.5H69.2c.3,3.4,1.2,6.3,4.3,7.9a9.6,9.6,0,0,0,9.5-.2,4.5,4.5,0,0,0,1.9-1.8c.7-1.5,1.8-1.7,3.3-1.6h6.7c-1.3,4.9-3.9,8.4-8.3,10.3a21.9,21.9,0,0,1-17.4,0c-5.9-2.5-8.9-7.5-9.7-13.7s1.1-13.9,7.4-18.3,12.5-4.6,19-1.3,9.6,8.8,9.9,16c0,.7,0,1.4,0,2A6.9,6.9,0,0,1,95.5,64.5ZM69.1,58.4H85.3c.2-3.8-3.6-7.5-7.7-7.7A8.2,8.2,0,0,0,69.1,58.4Z"/><path d="M87.8,34.4v4.7H67.7c-1.3,0-1.8-.4-1.6-1.7s0-2.1,0-3.2Z"/><path d="M26.4,71.4V58H30c3.5,0,7-.1,10.4.2a6.6,6.6,0,0,1,0,13.1C35.8,71.5,31.2,71.4,26.4,71.4Z" fill="#fff"/><path d="M26.4,50.8V39.3H38.1c4.5.1,7.4,4,5.8,7.8a5.5,5.5,0,0,1-5,3.6C34.8,50.9,30.7,50.8,26.4,50.8Z" fill="#fff"/><path d="M69.1,58.4a8.2,8.2,0,0,1,8.5-7.7c4.1.1,7.9,3.9,7.7,7.7Z" fill="#fff"/></g></svg>