<svg id="Layer_1" data-name="Layer 1" xmlns="http://www.w3.org/2000/svg" width="0.5in" height="0.5in" viewBox="0 0 36 36"><title>logo</title><path d="M12,9h2.8l7,12.3c.9-1.4,1.7-2.9,2.5-4.3s1.6-2.6,2.2-3.8,1.2-2.1,1.7-2.8L28.9,9h6.2v.3a3,3,0,0,0-1.8.4,2.4,2.4,0,0,0-.9.8,3.7,3.7,0,0,0-.2,1.2,8.6,8.6,0,0,0-.1,1.6v9.1a2.8,2.8,0,0,0,.1.9.8.8,0,0,0,.2.6c0,.1.1.2.2.3l.6.3a1.9,1.9,0,0,0,.9.4h1.2v.3H25.2V25a5.6,5.6,0,0,0,2.1-.4,2.3,2.3,0,0,0,1.2-.8l.3-.8c0-.3.1-.6.1-.9V10.2l-1.7,3c-.6.9-1.1,1.9-1.6,2.7s-1.1,1.8-1.6,2.7l-1.8,3.1-.4.7a4.7,4.7,0,0,0-.5,1,4.1,4.1,0,0,0-.5.9l-.3.6h-.2l-1.9-3.3-1.8-3.2L15,15.6l-1.4-2.4a19.4,19.4,0,0,0-1-1.7l-.6-1Z" fill="#231f20"/><path d="M5.5,8.7a5.9,5.9,0,0,0-.2-1.3,2,2,0,0,0-.4-.8A4.3,4.3,0,0,0,3.2,5.4L1,4.9V4.4H15.1v.4l-1.3.3a5.3,5.3,0,0,0-1.5.5,3.4,3.4,0,0,0-1.2,1.2,3,3,0,0,0-.7,2V25.1c0,.9.1,1.8.1,2.7a3.3,3.3,0,0,0,.5,1.9,1.4,1.4,0,0,0,.7.4,6.7,6.7,0,0,0,2.9.5l1.7-.4a8.3,8.3,0,0,0,3-1.3,8.6,8.6,0,0,0,2-1.8,16.4,16.4,0,0,0,1.4-2.2c.4-.9.8-1.7,1.1-2.6l.5.2-1.7,9.1H.7v-.4a9,9,0,0,0,2.2-.6,3.4,3.4,0,0,0,1.7-1.1,2.9,2.9,0,0,0,.4-.8,3.6,3.6,0,0,0,.2-1.1c.1-.5.1-.9.2-1.4V24.6c0-.4.1-.9.1-1.6V8.7Z" fill="#231f20"/></svg>